<?xml version="1.0" standalone="no"?>
<!DOCTYPE svg PUBLIC "-//W3C//DTD SVG 20010904//EN"
 "http://www.w3.org/TR/2001/REC-SVG-20010904/DTD/svg10.dtd">
<svg version="1.0" xmlns="http://www.w3.org/2000/svg"
 width="2048.000000pt" height="2048.000000pt" viewBox="0 0 2048.000000 2048.000000"
 preserveAspectRatio="xMidYMid meet">
<metadata>
Created by potrace 1.16, written by Peter Selinger 2001-2019
</metadata>
<g transform="translate(0.000000,2048.000000) scale(0.100000,-0.100000)"
fill="#000000" stroke="none">
<path d="M0 10240 l0 -10240 10240 0 10240 0 0 10240 0 10240 -10240 0 -10240
0 0 -10240z m11130 7154 c0 -151 -4 -273 -8 -270 -10 6 -8 145 -17 -1296 -5
-698 -12 -1268 -16 -1268 -5 0 -11 -375 -14 -832 -9 -1458 -20 -2534 -26
-2513 -3 11 -9 -720 -13 -1625 -5 -905 -12 -1649 -16 -1655 -4 -5 -11 -760
-15 -1677 -6 -1404 -10 -1668 -21 -1668 -12 0 -14 -103 -14 -635 l0 -635 -532
0 -531 0 6 553 c4 303 7 707 7 897 0 197 4 339 9 331 5 -7 12 453 16 1060 4
591 11 1079 15 1084 4 6 11 485 15 1065 3 580 9 1063 12 1074 4 15 7 16 14 5
5 -8 9 94 9 249 l0 262 -710 0 c-481 0 -710 -3 -710 -10 0 -14 -72 -9 -83 4
-6 8 -10 7 -14 -1 -4 -10 -86 -13 -363 -13 l-357 0 -7 -31 c-3 -17 -10 -28
-16 -24 -5 3 -10 -1 -10 -9 0 -9 -4 -16 -10 -16 -5 0 -10 -9 -10 -20 0 -11 -4
-20 -10 -20 -5 0 -10 -7 -10 -15 0 -8 -9 -23 -20 -32 -11 -10 -20 -25 -20 -35
0 -10 -6 -18 -14 -18 -15 0 -26 -21 -26 -51 0 -11 -4 -18 -9 -15 -5 3 -12 -6
-15 -20 -5 -17 -12 -24 -21 -20 -8 3 -14 2 -13 -2 3 -12 -14 -56 -28 -70 -8
-7 -14 -22 -14 -32 0 -10 -7 -20 -15 -24 -8 -3 -15 -12 -15 -21 0 -8 -6 -15
-14 -15 -8 0 -17 -15 -20 -35 -4 -20 -10 -33 -15 -31 -4 3 -13 -10 -19 -29 -7
-18 -19 -36 -27 -39 -8 -3 -15 -10 -15 -16 0 -6 -7 -18 -15 -26 -8 -9 -15 -24
-15 -34 0 -10 -9 -22 -20 -25 -11 -3 -20 -13 -20 -21 0 -8 -4 -14 -10 -14 -5
0 -10 -6 -10 -14 0 -25 -45 -103 -57 -99 -6 2 -14 -10 -18 -26 -4 -17 -11 -31
-16 -31 -5 0 -9 -9 -9 -19 0 -11 -7 -26 -15 -35 -8 -8 -15 -23 -15 -33 0 -15
-2 -16 -10 -3 -8 13 -10 12 -10 -2 0 -10 -4 -18 -9 -18 -5 0 -12 -14 -16 -30
-4 -17 -11 -28 -16 -24 -5 3 -9 -4 -9 -15 0 -12 -11 -31 -25 -43 -14 -12 -25
-30 -25 -40 0 -10 -4 -18 -10 -18 -5 0 -12 -11 -16 -25 -3 -14 -10 -25 -15
-25 -5 0 -9 -9 -9 -19 0 -11 -9 -22 -19 -26 -12 -3 -23 -19 -27 -37 -3 -18
-13 -38 -20 -46 -8 -7 -14 -20 -14 -28 0 -8 -7 -14 -15 -14 -8 0 -17 -11 -21
-25 -3 -14 -10 -25 -14 -25 -5 0 -11 -14 -15 -30 -4 -16 -13 -30 -20 -30 -8 0
-17 -9 -20 -20 -3 -11 -11 -20 -16 -20 -5 0 -9 -6 -8 -12 3 -17 -11 -49 -28
-66 -7 -7 -13 -22 -13 -32 0 -10 -9 -20 -20 -23 -11 -3 -20 -12 -20 -21 0 -9
-4 -16 -10 -16 -5 0 -12 -15 -16 -34 -4 -24 -10 -33 -20 -29 -8 3 -14 -1 -14
-11 0 -9 -6 -19 -14 -22 -8 -3 -17 -21 -20 -40 -4 -19 -11 -34 -16 -34 -4 0
-11 -13 -15 -29 -3 -17 -14 -31 -26 -34 -11 -3 -19 -14 -19 -26 0 -12 -4 -21
-9 -21 -5 0 -12 -11 -15 -25 -4 -14 -13 -25 -21 -25 -8 0 -15 -9 -15 -20 0
-11 -7 -23 -15 -26 -8 -3 -17 -21 -21 -40 -3 -19 -10 -34 -15 -34 -5 0 -9 -6
-9 -13 0 -7 -11 -21 -25 -31 -13 -10 -22 -22 -20 -26 3 -5 -1 -15 -9 -22 -7
-8 -17 -24 -20 -36 -4 -12 -14 -22 -22 -22 -8 0 -14 -9 -14 -20 0 -11 -6 -23
-14 -26 -8 -3 -18 -20 -22 -37 -4 -18 -15 -39 -25 -48 -11 -9 -19 -24 -19 -33
0 -9 -4 -16 -10 -16 -5 0 -10 -7 -10 -15 0 -9 -6 -18 -14 -21 -8 -3 -18 -19
-21 -35 -4 -16 -13 -29 -20 -29 -8 0 -17 -15 -21 -34 -3 -19 -12 -37 -20 -40
-8 -3 -14 -11 -14 -18 0 -8 -9 -20 -20 -28 -11 -8 -20 -22 -20 -31 0 -9 -7
-19 -15 -23 -8 -3 -15 -12 -15 -21 0 -8 -4 -15 -10 -15 -5 0 -10 -8 -10 -19 0
-10 -11 -30 -25 -45 -14 -15 -25 -35 -25 -45 0 -11 -7 -21 -15 -25 -8 -3 -15
-12 -15 -21 0 -8 -6 -15 -14 -15 -8 0 -17 -13 -21 -29 -3 -16 -13 -32 -21 -35
-9 -3 -13 -10 -10 -15 4 -5 0 -16 -8 -24 -8 -8 -18 -26 -21 -40 -4 -15 -12
-24 -20 -21 -8 3 -15 -7 -19 -29 -4 -19 -13 -38 -21 -41 -8 -3 -15 -15 -15
-26 0 -11 -7 -20 -15 -20 -8 0 -17 -11 -21 -25 -3 -14 -10 -25 -15 -25 -5 0
-9 -9 -9 -20 0 -11 -7 -23 -15 -26 -8 -4 -15 -12 -15 -20 0 -8 -3 -14 -7 -14
-5 0 -17 -19 -28 -43 -11 -23 -26 -48 -32 -55 -7 -7 -13 -20 -13 -28 0 -8 -6
-14 -14 -14 -8 0 -17 -13 -21 -30 -4 -17 -11 -30 -16 -30 -5 0 -9 -7 -9 -15 0
-9 -7 -18 -15 -21 -8 -4 -15 -15 -15 -25 0 -10 -4 -19 -10 -19 -5 0 -10 -5
-10 -11 0 -6 -7 -17 -15 -25 -8 -9 -15 -24 -15 -34 0 -10 -7 -20 -15 -24 -8
-3 -15 -12 -15 -21 0 -8 -7 -15 -15 -15 -8 0 -15 -9 -15 -19 0 -11 -7 -26 -15
-35 -8 -8 -15 -20 -15 -26 0 -6 -7 -13 -15 -16 -8 -4 -15 -15 -15 -25 0 -10
-4 -19 -10 -19 -5 0 -10 -5 -10 -11 0 -6 -7 -17 -15 -25 -8 -9 -15 -24 -15
-34 0 -10 -7 -20 -15 -24 -8 -3 -15 -12 -15 -21 0 -8 -7 -15 -15 -15 -8 0 -15
-9 -15 -19 0 -11 -6 -26 -13 -33 -8 -7 -17 -25 -20 -40 -4 -15 -16 -32 -27
-38 -11 -6 -20 -17 -20 -25 0 -8 -4 -15 -9 -15 -5 0 -12 -13 -16 -30 -4 -17
-11 -30 -16 -30 -5 0 -11 -11 -15 -25 -3 -14 -12 -25 -19 -25 -7 0 -16 -11
-19 -25 -4 -14 -11 -25 -16 -25 -6 0 -10 -9 -10 -20 0 -12 -11 -31 -25 -44
-14 -13 -25 -31 -25 -40 0 -9 -4 -16 -9 -16 -5 0 -13 -10 -17 -22 -4 -13 -15
-30 -25 -39 -11 -9 -19 -21 -19 -28 0 -6 -4 -11 -9 -11 -5 0 -12 -14 -16 -30
-4 -17 -11 -30 -16 -30 -5 0 -9 -6 -9 -13 0 -7 -7 -22 -16 -33 -8 -10 -13 -13
-9 -6 3 6 2 12 -3 12 -5 0 -12 -14 -16 -31 -3 -16 -13 -37 -21 -45 -8 -9 -15
-24 -15 -34 0 -10 -9 -22 -20 -25 -11 -3 -20 -13 -20 -21 0 -8 -4 -14 -9 -14
-5 0 -12 -16 -15 -35 -4 -20 -10 -33 -15 -31 -4 3 -13 -10 -19 -29 -7 -18 -19
-36 -27 -39 -8 -3 -15 -12 -15 -21 0 -8 -4 -15 -9 -15 -5 0 -12 -13 -16 -30
-4 -16 -11 -30 -16 -30 -5 0 -9 -5 -9 -11 0 -7 -8 -19 -18 -28 -19 -18 -62
-101 -62 -121 0 -7 -7 -10 -15 -6 -10 3 -17 -3 -22 -22 -3 -15 -12 -33 -20
-40 -7 -7 -13 -20 -13 -28 0 -8 -7 -14 -15 -14 -8 0 -15 -9 -15 -20 0 -10 -6
-23 -13 -27 -13 -9 -57 -93 -57 -110 0 -6 -9 -13 -20 -16 -12 -3 -20 -14 -20
-26 0 -12 -4 -21 -9 -21 -5 0 -12 -14 -16 -30 -4 -17 -13 -30 -21 -30 -8 0
-14 -7 -14 -15 0 -9 -6 -18 -14 -21 -8 -3 -18 -20 -22 -37 -3 -17 -13 -37 -20
-45 -8 -7 -14 -22 -14 -32 0 -10 -9 -20 -21 -23 -12 -3 -18 -10 -14 -16 3 -6
0 -14 -8 -17 -8 -3 -17 -18 -21 -35 -3 -17 -12 -29 -21 -29 -8 0 -15 -7 -15
-15 0 -9 -6 -18 -14 -21 -8 -3 -17 -21 -21 -40 -3 -19 -10 -32 -16 -29 -5 4
-9 -1 -9 -9 0 -9 -4 -16 -10 -16 -5 0 -10 -9 -10 -19 0 -10 -7 -21 -15 -25 -8
-3 -15 -12 -15 -21 0 -8 -4 -15 -9 -15 -5 0 -12 -13 -16 -30 -4 -16 -12 -30
-20 -30 -7 0 -16 -12 -19 -26 -4 -15 -18 -41 -32 -59 -13 -17 -24 -37 -24 -43
0 -7 -4 -12 -10 -12 -5 0 -10 -7 -10 -15 0 -8 -4 -15 -9 -15 -5 0 -13 -10 -17
-22 -3 -12 -13 -28 -20 -36 -8 -7 -14 -20 -14 -28 0 -8 -7 -14 -16 -14 -9 0
-18 -9 -21 -20 -3 -10 -15 -22 -27 -26 -11 -4 -24 -12 -28 -17 -5 -8 -159 -12
-486 -15 -434 -4 -480 -3 -485 12 -4 9 -2 16 3 16 6 0 10 9 10 20 0 11 4 20 9
20 5 0 11 9 14 20 3 11 12 20 20 20 8 0 17 13 21 31 3 16 13 37 21 45 8 9 15
24 15 35 0 10 7 19 15 19 8 0 15 7 15 15 0 9 6 18 14 21 8 3 17 20 20 38 3 17
15 38 26 46 11 8 20 22 20 31 0 9 7 19 15 23 8 3 15 12 15 21 0 8 4 15 9 15 5
0 11 14 15 30 3 17 12 30 20 30 9 0 18 14 22 34 3 19 12 37 20 40 8 3 14 12
14 21 0 8 5 15 10 15 6 0 10 7 10 15 0 8 5 15 10 15 6 0 10 7 10 15 0 8 4 15
9 15 5 0 12 11 15 25 4 14 10 23 15 20 5 -2 12 11 15 30 4 19 13 35 20 35 8 0
17 12 20 26 4 15 12 32 19 40 31 34 37 44 37 59 0 8 5 15 10 15 6 0 10 7 10
16 0 8 4 13 9 10 5 -3 12 9 15 28 4 19 13 37 21 40 9 3 15 9 14 13 -3 21 2 33
15 33 8 0 17 14 21 30 4 17 10 28 15 25 4 -2 10 9 14 26 3 17 10 28 14 25 5
-3 22 20 38 52 16 31 35 63 42 70 6 7 12 20 12 28 0 8 6 14 14 14 8 0 17 14
21 30 4 19 11 28 18 23 7 -3 9 -3 5 1 -10 12 12 66 28 66 8 0 15 5 15 10 1 6
2 15 3 20 0 6 6 14 13 18 6 4 15 20 18 35 4 15 11 27 16 27 5 0 9 6 9 14 0 8
9 17 19 21 11 3 22 19 26 35 4 17 10 30 15 30 4 0 11 16 14 35 4 21 13 35 21
35 8 0 15 7 15 15 0 9 6 18 14 21 8 3 17 19 20 36 3 17 15 38 25 47 11 10 21
24 23 31 3 14 12 29 34 53 6 7 14 25 18 40 3 15 13 27 21 27 8 0 17 14 21 34
3 19 12 37 20 40 8 3 14 12 14 21 0 8 5 15 10 15 6 0 10 8 10 18 0 10 9 24 20
32 11 8 20 20 20 28 0 7 6 15 14 18 8 3 17 21 20 39 5 23 11 32 20 29 9 -4 16
6 20 30 4 20 11 36 16 36 5 0 12 9 15 20 3 11 13 20 22 20 8 0 13 6 10 13 -2
6 4 24 14 38 10 14 21 37 24 51 4 15 13 29 21 32 8 3 14 15 14 26 0 11 7 20
15 20 8 0 17 11 21 25 3 14 10 25 14 25 4 0 10 13 13 30 5 21 11 28 21 24 11
-4 17 4 22 30 3 20 10 36 14 36 5 0 12 10 16 22 3 12 13 28 20 36 8 7 14 20
14 28 0 8 7 14 15 14 8 0 15 6 15 14 0 8 7 22 16 30 8 9 13 16 9 16 -11 0 24
58 40 63 8 4 15 14 15 22 0 9 7 23 15 31 8 9 15 23 15 33 0 9 9 27 20 39 11
12 20 25 20 31 0 5 7 11 15 15 8 3 15 15 15 26 0 11 4 20 9 20 5 0 12 14 16
30 4 17 13 30 20 30 8 0 17 9 20 20 3 11 10 20 15 20 5 0 12 16 16 35 3 19 10
32 15 29 5 -3 9 0 9 7 0 6 10 20 22 30 11 11 16 19 9 19 -12 0 -9 6 27 45 6 7
12 20 12 28 0 8 11 26 25 41 14 15 25 32 25 37 0 6 5 7 10 4 6 -3 10 -1 10 4
0 6 -6 11 -12 11 -7 0 -5 5 5 11 9 5 17 16 17 22 0 7 9 19 20 27 11 8 20 22
20 32 0 10 5 18 10 18 6 0 10 7 10 15 0 9 6 18 14 21 8 3 17 21 20 40 4 20 13
34 22 34 8 0 17 13 20 30 4 17 10 30 15 30 4 0 11 9 14 20 3 11 13 20 21 20 8
0 14 9 14 19 0 11 7 26 15 35 8 8 15 21 15 29 0 8 9 26 20 40 11 14 20 30 20
36 0 6 7 11 16 11 10 0 14 6 10 15 -3 8 -1 15 4 15 6 0 10 7 10 15 0 8 5 15
10 15 6 0 10 9 10 20 0 12 10 24 23 30 12 5 19 9 14 9 -4 1 -1 11 8 24 8 13
12 27 8 30 -3 4 -1 7 5 7 6 0 14 10 18 22 3 12 12 27 18 34 27 28 46 55 46 63
0 5 6 16 13 23 6 7 17 26 22 42 6 16 14 28 18 25 11 -6 30 29 22 41 -3 6 0 13
8 16 9 3 18 16 21 30 4 13 11 24 16 24 6 0 10 9 10 19 0 11 9 22 19 26 12 3
23 19 27 37 3 18 13 38 20 46 8 7 14 22 14 33 0 10 6 19 14 19 8 0 18 9 21 20
3 11 10 20 15 20 5 0 11 13 15 29 3 15 15 38 25 49 11 12 20 28 20 36 0 7 7
16 15 20 8 3 15 12 15 21 0 8 4 15 9 15 5 0 12 14 16 30 4 17 13 30 21 30 8 0
14 7 14 15 0 9 6 18 14 21 8 3 17 21 20 40 4 20 13 34 22 34 8 0 17 13 21 30
3 17 9 30 14 30 5 0 9 7 9 15 0 9 6 18 14 21 8 3 17 21 20 39 5 23 11 32 20
29 9 -4 16 5 21 25 3 16 13 35 21 42 8 6 14 18 14 25 0 8 7 14 15 14 8 0 15 9
15 19 0 11 6 26 13 33 6 7 20 30 29 51 10 20 22 37 28 37 5 0 10 7 10 15 0 8
5 15 10 15 6 0 10 9 10 19 0 11 7 26 15 35 8 8 15 22 15 31 0 9 9 19 19 22 12
3 23 17 26 34 4 16 11 29 16 29 5 0 9 9 9 20 0 11 11 30 25 42 14 12 25 28 25
35 0 7 5 13 10 13 6 0 10 6 10 14 0 8 6 21 14 28 7 8 17 28 20 45 5 22 12 30
22 26 10 -3 16 4 20 26 4 17 10 31 14 31 4 0 11 11 14 25 4 14 11 25 17 25 6
0 8 4 4 9 -3 5 7 19 21 30 15 12 23 21 18 21 -4 0 -3 5 4 12 7 7 12 20 12 30
0 10 4 18 10 18 5 0 12 11 16 25 3 14 12 25 20 25 8 0 15 5 15 10 1 6 2 14 3
18 0 5 9 16 19 26 9 10 17 29 17 42 0 14 4 22 10 19 5 -3 15 5 21 19 7 14 16
23 21 20 5 -3 9 0 8 7 -3 20 11 59 20 59 4 0 11 12 14 26 4 14 20 38 35 53 16
16 32 42 36 60 4 17 13 31 21 31 8 0 17 13 21 30 3 17 9 30 14 30 5 0 9 7 9
15 0 9 6 18 14 21 8 3 17 21 20 40 4 20 13 34 22 34 8 0 17 13 20 29 4 17 12
32 20 35 8 3 14 12 14 21 0 8 7 15 15 15 8 0 15 9 15 19 0 11 6 26 13 33 6 7
20 30 29 51 10 20 22 37 28 37 5 0 10 7 10 15 0 8 4 15 9 15 5 0 12 13 16 29
3 16 13 32 20 35 9 3 12 12 9 21 -5 11 0 18 14 22 13 3 23 16 27 34 4 16 10
29 15 29 5 0 11 13 15 30 4 16 15 32 26 35 10 4 19 15 19 25 0 10 3 20 8 22 4
2 17 24 30 51 14 28 30 47 40 47 13 0 14 2 4 9 -11 7 -11 9 2 14 9 4 16 16 16
27 0 11 4 20 10 20 5 0 12 11 16 25 3 14 10 25 15 25 5 0 9 9 9 19 0 11 9 22
20 26 12 4 22 19 26 40 3 19 10 33 14 30 5 -3 11 8 15 25 4 16 13 30 21 30 8
0 15 5 15 10 1 6 2 15 3 20 0 6 6 14 13 18 6 4 15 20 18 35 4 15 12 27 19 27
6 1 22 24 36 53 14 29 31 58 37 65 7 7 13 22 13 33 0 10 7 19 15 19 8 0 15 7
15 15 0 9 6 18 14 21 8 3 17 21 20 40 4 20 13 34 21 34 8 0 18 12 21 27 7 26
13 36 42 68 6 7 12 21 12 29 0 9 5 16 10 16 6 0 10 7 10 16 0 8 4 13 9 9 6 -3
13 10 16 29 4 19 13 37 21 40 8 3 14 12 14 21 0 8 7 15 15 15 8 0 15 9 15 19
0 11 6 26 13 33 6 7 21 30 31 51 11 20 23 37 28 37 4 0 8 7 8 15 0 8 5 15 10
15 6 0 10 9 10 19 0 11 6 26 14 33 7 8 17 24 20 36 4 12 13 22 21 22 7 0 16
14 20 30 4 17 10 28 15 25 4 -2 10 9 14 26 6 32 29 62 40 52 3 -4 6 3 6 15 0
12 5 22 10 22 6 0 10 6 10 14 0 8 6 21 14 28 7 8 17 28 20 45 4 19 15 33 27
36 11 3 19 14 19 26 0 12 4 21 9 21 5 0 12 11 15 25 4 14 13 25 20 25 8 0 17
16 21 37 4 25 9 32 15 23 6 -9 10 -3 15 23 4 20 11 35 15 32 4 -3 10 9 14 25
3 18 12 30 21 30 8 0 15 9 15 20 0 11 6 23 14 26 8 3 18 19 21 35 4 16 13 29
20 29 7 0 16 14 20 30 4 17 11 30 16 30 5 0 11 11 15 25 3 14 10 25 15 25 5 0
9 7 9 15 0 8 5 15 10 15 6 0 10 7 10 15 0 8 4 15 8 15 9 0 52 81 52 99 0 6 5
10 12 8 6 -1 16 12 22 28 6 17 16 34 23 38 7 4 13 15 13 22 0 8 5 15 10 15 6
0 10 8 10 18 0 10 9 24 20 32 11 8 23 29 26 46 3 18 12 35 20 38 8 3 14 12 14
21 0 8 7 15 15 15 8 0 15 9 15 19 0 11 7 26 15 34 7 8 17 26 21 41 3 14 10 23
15 20 5 -3 9 2 9 10 0 9 5 16 10 16 6 0 10 7 10 15 0 8 5 15 10 15 6 0 10 8
10 18 0 11 9 29 20 42 11 13 20 29 20 37 0 7 7 13 15 13 8 0 15 6 15 14 0 8 6
21 14 28 7 8 17 28 20 46 4 18 15 34 27 37 10 4 19 15 19 26 0 10 4 19 9 19 5
0 12 11 15 25 4 14 11 25 16 25 6 0 10 9 10 21 0 12 8 23 19 26 12 3 23 17 27
36 3 17 13 37 20 45 8 7 14 19 14 27 0 7 10 15 21 18 13 4 20 11 16 20 -3 8 3
21 14 30 10 9 19 26 19 37 0 11 3 20 8 20 4 0 12 10 17 23 6 12 16 21 22 20 6
-1 14 13 17 32 4 19 11 35 16 35 4 0 11 14 15 30 4 17 13 30 20 30 8 0 17 9
20 20 3 11 10 20 15 20 4 0 11 16 14 35 4 20 11 33 17 30 5 -4 9 1 9 9 0 9 5
16 10 16 6 0 10 9 10 19 0 10 7 21 15 25 8 3 15 12 15 21 0 8 4 15 9 15 5 0
12 14 16 30 4 17 13 30 20 30 8 0 17 9 20 20 3 11 11 20 16 20 5 0 9 6 8 13
-2 19 12 57 22 57 5 0 9 7 9 15 0 8 5 15 10 15 6 0 10 6 10 14 0 8 7 16 15 20
8 3 15 12 15 21 0 8 4 15 9 15 5 0 11 14 15 30 3 17 12 30 20 30 8 0 16 14 20
34 4 19 13 37 21 40 8 3 15 15 15 26 0 11 5 20 10 20 6 0 10 6 10 13 0 7 9 19
20 27 11 8 20 23 20 33 0 9 6 20 14 23 8 3 17 17 21 32 4 15 15 35 26 45 10
10 19 24 19 31 0 8 7 16 15 20 8 3 15 9 14 13 -3 21 2 33 15 33 8 0 17 11 20
25 4 14 11 25 17 25 6 0 8 4 4 10 -3 5 4 19 15 30 11 11 23 34 27 50 3 17 11
30 18 30 7 0 16 11 19 25 4 14 11 25 16 25 6 0 10 9 10 21 0 12 8 23 19 26 11
3 22 15 25 26 3 12 6 118 6 235 0 140 3 211 10 207 7 -4 10 118 10 359 0 258
-3 366 -11 366 -6 0 -13 -9 -16 -20 -3 -11 -12 -20 -19 -20 -8 0 -17 -13 -20
-30 -4 -16 -10 -30 -15 -30 -4 0 -11 -9 -14 -20 -3 -11 -13 -20 -21 -20 -8 0
-14 -9 -14 -19 0 -11 -7 -26 -15 -35 -8 -8 -15 -21 -15 -30 0 -8 -6 -19 -13
-23 -7 -4 -18 -21 -25 -36 -7 -15 -17 -25 -22 -22 -6 3 -10 -3 -10 -15 0 -11
-7 -23 -15 -26 -8 -3 -17 -21 -21 -40 -3 -19 -12 -34 -20 -34 -7 0 -16 -11
-20 -25 -3 -14 -10 -25 -14 -25 -5 0 -12 -10 -16 -22 -4 -13 -15 -30 -25 -39
-11 -9 -19 -24 -19 -33 0 -9 -5 -16 -10 -16 -6 0 -14 -8 -17 -17 -4 -10 -13
-24 -20 -31 -7 -7 -13 -22 -13 -33 0 -10 -7 -19 -15 -19 -8 0 -15 -7 -15 -15
0 -9 -7 -18 -15 -21 -8 -4 -15 -14 -15 -24 0 -10 -7 -25 -15 -34 -8 -8 -15
-18 -15 -22 0 -3 -8 -14 -19 -23 -10 -9 -21 -26 -25 -38 -4 -13 -12 -23 -17
-23 -5 0 -9 -9 -9 -21 0 -12 -8 -23 -19 -26 -12 -3 -23 -17 -26 -34 -4 -16
-10 -29 -15 -29 -5 0 -11 -13 -15 -30 -3 -16 -14 -32 -23 -35 -17 -5 -52 -65
-52 -89 0 -8 -7 -16 -15 -20 -8 -3 -15 -12 -15 -21 0 -8 -7 -15 -15 -15 -9 0
-18 -12 -21 -29 -4 -17 -12 -32 -20 -35 -8 -3 -14 -12 -14 -21 0 -8 -6 -15
-14 -15 -8 0 -17 -13 -21 -30 -4 -16 -11 -30 -16 -30 -5 0 -9 -6 -9 -14 0 -8
-6 -21 -14 -28 -7 -8 -17 -24 -20 -36 -4 -12 -14 -22 -22 -22 -8 0 -14 -9 -14
-20 0 -11 -6 -23 -14 -26 -8 -3 -17 -16 -20 -30 -4 -13 -13 -24 -21 -24 -8 0
-15 -9 -15 -20 0 -11 -6 -23 -14 -26 -8 -3 -18 -19 -21 -35 -4 -16 -11 -29
-16 -29 -5 0 -9 -6 -9 -14 0 -8 -9 -17 -20 -21 -11 -3 -19 -9 -18 -13 3 -12
-14 -56 -28 -70 -8 -7 -14 -22 -14 -33 0 -11 -7 -19 -16 -19 -9 0 -18 -9 -21
-20 -3 -11 -9 -20 -13 -20 -5 0 -11 -13 -15 -30 -4 -16 -15 -32 -26 -35 -10
-4 -19 -13 -19 -21 0 -8 -4 -14 -10 -14 -5 0 -10 -8 -10 -18 0 -11 -9 -29 -20
-42 -11 -13 -20 -29 -20 -37 0 -7 -6 -13 -14 -13 -8 0 -17 -11 -20 -25 -4 -14
-11 -25 -16 -25 -6 0 -10 -9 -10 -20 0 -11 -7 -23 -15 -26 -8 -4 -15 -12 -15
-20 0 -8 -4 -14 -10 -14 -5 0 -10 -7 -10 -15 0 -8 -4 -15 -10 -15 -5 0 -10 -7
-10 -15 0 -9 -6 -18 -14 -21 -8 -3 -16 -18 -20 -35 -3 -16 -12 -29 -20 -29 -8
0 -17 -14 -21 -31 -4 -17 -14 -39 -24 -49 -34 -36 -51 -61 -51 -74 0 -8 -7
-16 -15 -20 -8 -3 -15 -12 -15 -21 0 -8 -4 -15 -9 -15 -5 0 -12 -13 -16 -29
-3 -17 -14 -31 -26 -34 -11 -3 -19 -14 -19 -26 0 -12 -4 -21 -9 -21 -5 0 -12
-11 -15 -24 -3 -13 -15 -26 -26 -29 -13 -3 -18 -10 -14 -21 4 -9 0 -18 -9 -22
-9 -3 -19 -19 -22 -35 -4 -16 -11 -29 -16 -29 -5 0 -9 -7 -9 -16 0 -9 -9 -18
-20 -21 -11 -3 -20 -13 -20 -23 0 -10 -6 -25 -13 -32 -7 -7 -16 -21 -20 -30
-3 -10 -13 -18 -22 -18 -8 0 -15 -7 -15 -16 0 -18 -39 -87 -52 -92 -4 -2 -8
-10 -8 -18 0 -8 -4 -14 -10 -14 -5 0 -10 -7 -10 -15 0 -8 -4 -15 -9 -15 -5 0
-12 -13 -16 -29 -3 -16 -13 -32 -21 -35 -8 -3 -14 -15 -14 -26 0 -11 -7 -20
-15 -20 -8 0 -17 -11 -21 -24 -3 -14 -12 -27 -20 -30 -8 -3 -14 -15 -14 -26 0
-11 -4 -20 -8 -20 -5 0 -15 -12 -23 -27 -14 -28 -24 -43 -46 -67 -7 -8 -15
-25 -19 -40 -3 -14 -12 -26 -20 -26 -8 0 -14 -7 -14 -15 0 -9 -7 -18 -15 -21
-8 -4 -15 -14 -15 -24 0 -10 -7 -25 -15 -34 -8 -8 -15 -18 -15 -22 0 -3 -8
-14 -19 -23 -10 -9 -21 -26 -25 -38 -4 -13 -12 -23 -17 -23 -5 0 -9 -9 -9 -21
0 -12 -8 -23 -20 -26 -13 -3 -22 -17 -26 -40 -4 -21 -10 -30 -14 -23 -4 7 -10
-2 -14 -23 -4 -23 -13 -37 -26 -40 -12 -3 -20 -14 -20 -26 0 -12 -4 -21 -9
-21 -5 0 -13 -10 -17 -22 -3 -12 -13 -28 -20 -36 -8 -7 -14 -20 -14 -28 0 -8
-7 -14 -15 -14 -9 0 -18 -12 -21 -30 -4 -16 -10 -30 -14 -30 -4 0 -10 -9 -13
-20 -3 -11 -12 -20 -20 -20 -9 0 -18 -13 -22 -30 -4 -16 -11 -30 -16 -30 -5 0
-9 -7 -9 -15 0 -9 -7 -18 -15 -21 -8 -4 -15 -14 -15 -23 0 -9 -9 -23 -20 -31
-11 -8 -20 -23 -20 -33 0 -9 -6 -20 -14 -23 -8 -3 -17 -16 -20 -30 -4 -13 -12
-24 -20 -24 -7 0 -16 -14 -20 -31 -3 -17 -10 -28 -15 -25 -5 4 -13 -8 -17 -26
-3 -18 -15 -40 -25 -49 -11 -9 -19 -21 -19 -28 0 -6 -4 -11 -9 -11 -5 0 -13
-10 -17 -22 -3 -12 -13 -28 -20 -36 -8 -7 -14 -22 -14 -33 0 -10 -7 -19 -15
-19 -9 0 -19 -8 -22 -17 -4 -10 -13 -24 -20 -31 -7 -7 -13 -22 -13 -32 0 -10
-9 -22 -20 -25 -11 -3 -20 -13 -20 -21 0 -8 -4 -14 -10 -14 -5 0 -10 -9 -10
-19 0 -11 -6 -26 -14 -33 -7 -8 -17 -24 -20 -36 -4 -12 -13 -22 -21 -22 -7 0
-16 -11 -19 -25 -4 -14 -11 -25 -16 -25 -6 0 -10 -9 -10 -21 0 -12 -8 -23 -19
-26 -12 -3 -23 -17 -26 -34 -4 -16 -11 -29 -16 -29 -5 0 -9 -7 -9 -15 0 -9 -7
-18 -15 -21 -8 -3 -17 -21 -21 -40 -3 -18 -9 -32 -13 -31 -13 4 -49 -42 -56
-72 -4 -17 -13 -31 -21 -31 -8 0 -17 -13 -20 -29 -4 -17 -12 -32 -20 -35 -8
-3 -14 -12 -14 -21 0 -8 -4 -15 -9 -15 -5 0 -11 -13 -14 -29 -4 -17 -14 -30
-26 -34 -13 -3 -21 -13 -21 -26 0 -12 -4 -21 -9 -21 -5 0 -12 -11 -15 -25 -4
-14 -13 -25 -21 -25 -8 0 -15 -9 -15 -20 0 -11 -6 -23 -14 -26 -8 -3 -17 -16
-20 -30 -4 -13 -11 -24 -16 -24 -6 0 -10 -9 -10 -19 0 -11 -9 -22 -19 -26 -11
-3 -22 -19 -26 -35 -4 -17 -10 -30 -15 -30 -4 0 -10 -9 -13 -20 -3 -11 -12
-20 -21 -20 -9 0 -16 -8 -16 -19 0 -11 -7 -26 -15 -35 -8 -8 -18 -28 -21 -45
-4 -17 -14 -33 -25 -36 -11 -4 -19 -13 -19 -21 0 -8 -4 -14 -9 -14 -5 0 -12
-13 -16 -29 -3 -16 -13 -32 -21 -35 -8 -3 -14 -12 -14 -21 0 -8 -6 -15 -14
-15 -8 0 -17 -13 -21 -29 -3 -16 -13 -32 -21 -35 -8 -3 -14 -14 -14 -23 0 -10
-9 -25 -20 -33 -11 -8 -20 -20 -20 -27 0 -7 -4 -13 -10 -13 -5 0 -10 -9 -10
-20 0 -11 -6 -23 -14 -26 -8 -3 -18 -19 -21 -35 -4 -16 -13 -29 -21 -29 -8 0
-14 -7 -14 -15 0 -9 -6 -18 -14 -21 -8 -3 -16 -18 -20 -35 -3 -17 -12 -29 -21
-29 -8 0 -15 -7 -15 -15 0 -9 -6 -18 -14 -21 -8 -3 -17 -21 -20 -40 -4 -19
-10 -34 -15 -34 -4 0 -13 -12 -19 -26 -7 -14 -16 -23 -21 -19 -5 3 -12 -8 -16
-25 -4 -16 -10 -30 -15 -30 -5 0 -11 -13 -15 -29 -3 -17 -14 -31 -26 -34 -11
-3 -19 -14 -19 -26 0 -12 -4 -21 -9 -21 -5 0 -13 -10 -17 -22 -4 -13 -15 -30
-25 -39 -10 -9 -16 -19 -12 -22 3 -4 -1 -9 -10 -13 -9 -3 -19 -19 -22 -35 -4
-16 -11 -29 -16 -29 -5 0 -9 -7 -9 -16 0 -9 -9 -18 -20 -21 -11 -3 -20 -13
-20 -23 0 -10 -7 -25 -15 -34 -8 -8 -15 -20 -15 -26 0 -6 -7 -13 -15 -16 -8
-4 -15 -13 -15 -21 0 -9 -8 -23 -19 -32 -10 -9 -21 -26 -25 -38 -4 -13 -11
-23 -16 -23 -4 0 -11 -11 -14 -25 -4 -14 -13 -25 -20 -25 -8 0 -17 -15 -20
-34 -4 -19 -13 -37 -21 -40 -8 -3 -15 -14 -15 -23 0 -10 -9 -25 -20 -33 -11
-8 -20 -20 -20 -26 0 -7 -7 -14 -15 -18 -8 -3 -15 -13 -15 -21 0 -9 -7 -23
-15 -31 -8 -9 -15 -24 -15 -35 0 -10 -7 -19 -15 -19 -8 0 -15 -4 -15 -8 0 -5
-9 -19 -20 -32 -11 -13 -20 -31 -20 -42 0 -10 -6 -18 -14 -18 -8 0 -18 -9 -21
-20 -3 -11 -10 -20 -15 -20 -5 0 -11 -14 -15 -30 -4 -16 -10 -30 -15 -30 -4 0
-11 -11 -14 -25 -4 -14 -13 -25 -20 -25 -8 0 -17 -11 -20 -25 -4 -14 -11 -25
-16 -25 -6 0 -10 -9 -10 -21 0 -12 -8 -23 -20 -26 -13 -3 -22 -17 -26 -39 -3
-19 -10 -31 -15 -28 -5 3 -9 -2 -9 -11 0 -8 -7 -18 -15 -21 -8 -4 -15 -12 -15
-20 0 -8 -4 -14 -10 -14 -5 0 -10 -9 -10 -20 0 -11 -4 -20 -9 -20 -5 0 -13
-10 -17 -22 -3 -12 -13 -28 -20 -36 -8 -7 -14 -20 -14 -28 0 -8 -7 -14 -15
-14 -9 0 -18 -12 -21 -29 -4 -17 -12 -32 -20 -35 -8 -3 -14 -12 -14 -21 0 -8
-4 -15 -10 -15 -5 0 -10 -7 -10 -15 0 -8 -4 -15 -10 -15 -5 0 -10 -6 -10 -14
0 -8 -7 -16 -15 -20 -8 -3 -15 -12 -15 -21 0 -8 -4 -15 -9 -15 -5 0 -11 -13
-14 -30 -4 -18 -13 -30 -22 -30 -8 0 -15 -9 -15 -20 0 -11 -6 -23 -14 -26 -8
-3 -17 -16 -20 -30 -4 -13 -11 -24 -16 -24 -6 0 -10 -9 -10 -19 0 -11 -9 -22
-19 -26 -11 -3 -22 -19 -26 -35 -4 -17 -11 -30 -16 -30 -5 0 -9 -7 -9 -16 0
-9 -9 -18 -19 -21 -11 -3 -21 -17 -25 -34 -3 -17 -13 -37 -21 -45 -8 -9 -15
-24 -15 -35 0 -10 -7 -19 -15 -19 -9 0 -19 -8 -22 -17 -4 -10 -13 -24 -20 -31
-7 -7 -13 -22 -13 -33 0 -10 -4 -19 -9 -19 -5 0 -13 -9 -16 -20 -3 -11 -12
-20 -20 -20 -7 0 -16 -14 -20 -30 -4 -17 -11 -30 -16 -30 -5 0 -11 -11 -15
-25 -3 -14 -12 -25 -20 -25 -7 0 -16 -11 -20 -25 -3 -14 -10 -25 -15 -25 -5 0
-9 -9 -9 -20 0 -11 -6 -23 -14 -26 -8 -3 -18 -19 -21 -35 -4 -16 -13 -29 -21
-29 -8 0 -14 -7 -14 -15 0 -9 -6 -18 -14 -21 -8 -3 -18 -19 -21 -35 -4 -16
-13 -29 -21 -29 -8 0 -14 -7 -14 -15 0 -9 -6 -18 -14 -21 -8 -3 -17 -20 -20
-38 -3 -17 -15 -38 -26 -46 -11 -8 -20 -22 -20 -31 0 -9 -7 -19 -15 -23 -8 -3
-15 -12 -15 -21 0 -8 -4 -15 -9 -15 -5 0 -12 -13 -16 -29 -3 -17 -14 -31 -26
-34 -11 -3 -19 -14 -19 -26 0 -12 -4 -21 -10 -21 -5 0 -12 -11 -16 -25 -3 -13
-15 -27 -25 -30 -10 -4 -19 -15 -19 -26 0 -10 -4 -19 -9 -19 -5 0 -12 -11 -15
-25 -4 -14 -11 -25 -16 -25 -6 0 -10 -9 -10 -21 0 -12 -8 -23 -19 -26 -12 -3
-23 -17 -26 -34 -4 -16 -11 -29 -16 -29 -5 0 -9 -7 -9 -15 0 -9 -7 -18 -15
-21 -8 -4 -15 -14 -15 -23 0 -9 -9 -23 -20 -31 -11 -8 -20 -20 -20 -26 0 -7
-7 -20 -16 -28 -12 -12 -12 -16 -2 -16 8 0 7 -4 -4 -11 -10 -5 -18 -17 -18
-26 0 -9 -6 -13 -14 -10 -10 4 -16 -5 -20 -28 -4 -18 -13 -36 -21 -39 -8 -3
-15 -15 -15 -26 0 -11 -6 -20 -14 -20 -8 0 -18 -10 -22 -22 -3 -12 -13 -28
-20 -36 -8 -7 -14 -20 -14 -28 0 -8 -4 -14 -10 -14 -5 0 -12 -11 -16 -25 -3
-14 -12 -25 -20 -25 -7 0 -16 -11 -20 -25 -3 -14 -10 -25 -14 -25 -5 0 -11
-13 -15 -30 -4 -16 -13 -30 -21 -30 -8 0 -14 -6 -14 -14 0 -8 -6 -21 -14 -28
-7 -8 -17 -24 -20 -36 -4 -12 -12 -22 -17 -22 -5 0 -9 -6 -9 -14 0 -8 -9 -17
-19 -21 -12 -3 -21 -19 -25 -40 -4 -19 -11 -35 -16 -35 -5 0 -13 -12 -16 -26
-4 -16 -12 -23 -20 -20 -8 3 -13 2 -13 -2 2 -14 -14 -52 -21 -52 -5 0 -11 -14
-15 -30 -4 -17 -11 -30 -16 -30 -5 0 -9 -7 -9 -16 0 -8 -4 -12 -10 -9 -6 3 -7
-1 -4 -9 4 -11 0 -16 -10 -16 -9 0 -16 -7 -16 -15 0 -8 -9 -23 -20 -32 -11
-10 -20 -25 -20 -35 0 -10 -6 -18 -14 -18 -8 0 -17 -12 -20 -26 -6 -24 -13
-35 -43 -69 -7 -7 -13 -20 -13 -27 0 -8 -9 -20 -20 -28 -11 -8 -23 -29 -26
-47 -3 -18 -10 -33 -14 -33 -5 0 -12 -9 -15 -20 -3 -11 -13 -20 -21 -20 -8 0
-17 -13 -20 -29 -4 -17 -12 -32 -20 -35 -8 -3 -14 -12 -14 -21 0 -8 -6 -15
-14 -15 -8 0 -17 -13 -21 -29 -3 -16 -13 -32 -21 -35 -8 -3 -14 -15 -14 -26 0
-11 -4 -20 -9 -20 -5 0 -12 -16 -15 -35 -5 -24 -11 -33 -21 -28 -10 3 -15 -1
-15 -16 0 -11 -9 -29 -21 -40 -12 -11 -18 -25 -14 -31 4 -7 -2 -14 -14 -17
-12 -3 -24 -16 -27 -29 -3 -13 -10 -24 -15 -24 -5 0 -9 -9 -9 -20 0 -11 -5
-20 -10 -20 -6 0 -14 -8 -17 -18 -4 -9 -17 -28 -30 -42 -13 -14 -23 -35 -23
-47 0 -13 -4 -23 -10 -23 -5 0 -12 -11 -16 -25 -3 -14 -13 -25 -20 -25 -8 0
-17 -13 -20 -30 -4 -16 -10 -30 -15 -30 -5 0 -9 -7 -9 -15 0 -7 -6 -18 -14
-22 -7 -4 -20 -21 -29 -38 -9 -16 -16 -23 -17 -15 0 8 -12 -9 -26 -38 -13 -28
-31 -52 -39 -52 -21 0 -19 -20 3 -21 16 -1 16 -2 -1 -6 -10 -3 -20 -18 -24
-34 -3 -16 -9 -29 -14 -29 -5 0 -9 -7 -9 -15 0 -9 -7 -18 -15 -21 -8 -4 -15
-13 -15 -21 0 -9 -9 -24 -21 -34 -11 -10 -22 -26 -24 -36 -1 -10 -7 -17 -13
-16 -5 1 -13 -9 -16 -22 -4 -15 -11 -22 -20 -19 -10 4 -16 -5 -21 -25 -4 -17
-11 -31 -16 -31 -5 0 -9 -16 -9 -35 0 -22 -6 -38 -15 -41 -8 -4 -15 -12 -15
-19 0 -7 -9 -15 -20 -18 -12 -3 -20 -14 -20 -27 0 -24 -37 -70 -57 -70 -11 0
-18 -27 -14 -52 0 -5 -6 -8 -14 -8 -8 0 -17 -14 -20 -34 -4 -21 -14 -36 -25
-39 -11 -3 -17 -14 -17 -30 0 -23 -6 -33 -40 -72 -7 -7 -13 -18 -13 -23 0 -6
-15 -25 -34 -44 -18 -18 -37 -48 -40 -66 -5 -19 -14 -32 -23 -32 -8 0 -17 -9
-20 -20 -3 -11 -9 -17 -14 -14 -5 3 -9 2 -10 -3 -3 -35 -12 -58 -27 -69 -9 -7
-17 -16 -17 -21 0 -4 -9 -18 -20 -30 -19 -22 -24 -23 -227 -23 -116 0 -209 -4
-213 -9 -3 -5 3 -12 12 -14 10 -3 -66 -5 -169 -6 l-188 -1 0 45 c0 25 6 53 12
61 7 8 19 21 26 29 6 7 12 21 12 29 0 9 5 16 10 16 6 0 10 5 10 11 0 6 7 17
15 25 8 9 15 24 15 35 0 10 4 19 9 19 5 0 13 9 16 20 3 11 12 20 20 20 7 0 16
13 20 30 4 16 10 30 15 30 4 0 10 9 13 20 3 11 12 20 20 20 9 0 17 14 21 35 4
19 11 35 16 35 5 0 12 11 16 25 3 14 10 23 14 20 5 -3 11 8 15 25 4 16 13 30
20 30 7 0 16 13 20 29 3 16 13 32 21 35 8 3 14 15 14 26 0 11 6 20 14 20 8 0
17 11 20 25 4 14 11 25 16 25 6 0 10 9 10 20 0 11 7 23 15 26 8 4 15 12 15 20
0 8 5 14 10 14 6 0 10 9 10 19 0 11 3 21 8 23 13 6 52 67 52 83 0 8 7 15 15
15 9 0 18 12 21 29 4 17 12 32 20 35 8 3 14 12 14 21 0 8 5 15 10 15 6 0 10 8
10 18 0 10 9 24 20 32 11 8 20 20 20 28 0 7 6 15 14 18 8 3 16 18 20 35 3 16
12 29 20 29 9 0 18 14 22 34 3 19 12 37 20 40 8 3 14 12 14 21 0 8 5 15 10 15
6 0 10 7 10 15 0 8 5 15 10 15 6 0 10 7 10 15 0 8 4 15 9 15 5 0 13 10 17 22
3 12 13 28 20 36 8 7 14 20 14 28 0 8 6 14 14 14 8 0 17 11 20 25 4 14 10 25
15 25 5 0 12 13 16 30 4 16 13 30 21 30 8 0 14 7 14 15 0 9 6 18 14 21 8 3 18
20 22 37 3 17 13 37 20 45 8 7 14 22 14 33 0 10 7 19 15 19 9 0 19 8 22 18 4
9 13 23 20 30 7 7 13 22 13 33 0 10 6 19 14 19 8 0 18 9 21 20 3 11 11 20 16
20 5 0 9 9 9 19 0 11 7 26 15 35 8 8 15 18 15 23 0 5 9 15 20 23 10 8 22 27
25 42 4 15 10 28 15 28 5 0 11 13 15 29 3 17 14 31 26 34 11 3 19 14 19 26 0
12 4 21 9 21 5 0 13 10 17 22 9 28 29 49 39 40 5 -4 5 1 2 11 -4 11 -1 20 7
23 8 3 17 17 21 32 4 15 10 29 13 32 4 3 12 14 19 25 6 11 16 19 23 17 6 -1 9
2 6 7 -4 5 -2 12 4 16 5 3 10 13 10 21 0 9 7 22 15 30 8 9 15 24 15 34 0 10 9
22 20 25 11 3 20 13 20 21 0 8 4 14 9 14 5 0 12 13 16 30 4 16 10 30 15 30 4
0 10 9 13 20 3 11 12 20 21 20 9 0 16 8 16 19 0 11 6 26 14 33 7 8 17 24 20
36 4 12 12 22 17 22 5 0 9 7 9 15 0 8 5 15 10 15 6 0 10 7 10 15 0 8 4 15 9
15 5 0 12 13 16 29 3 16 13 32 21 35 8 3 14 15 14 26 0 11 7 20 15 20 8 0 17
11 21 25 3 14 10 25 15 25 5 0 9 9 9 21 0 12 8 23 19 26 11 3 22 16 25 29 4
13 11 24 16 24 6 0 10 9 10 20 0 10 7 23 16 28 9 5 16 12 15 15 -1 14 13 41
31 59 10 10 18 27 18 37 0 10 7 21 15 25 8 3 15 12 15 21 0 8 7 15 15 15 9 0
18 12 21 29 4 17 12 32 20 35 8 3 14 12 14 21 0 8 5 15 10 15 6 0 10 7 10 16
0 9 8 24 19 33 10 9 21 26 25 39 4 12 11 22 16 22 5 0 11 13 15 30 4 16 11 28
17 27 6 -1 15 12 21 28 5 17 16 34 23 38 8 4 14 16 14 25 0 10 9 24 20 32 11
8 20 20 20 26 0 7 5 14 11 16 5 2 11 12 13 21 1 10 7 22 13 25 6 4 13 17 17
30 4 12 14 22 22 22 8 0 14 9 14 20 0 11 6 23 14 26 8 3 18 20 22 37 4 18 15
39 25 48 11 9 19 23 19 32 0 8 7 17 15 21 8 3 15 12 15 21 0 8 4 15 9 15 5 0
12 13 16 30 4 16 13 30 21 30 8 0 14 7 14 15 0 9 6 18 14 21 8 3 16 18 20 35
3 17 12 29 21 29 8 0 15 6 15 14 0 8 6 21 13 28 15 16 57 101 57 115 0 6 9 13
20 16 12 3 20 14 20 26 0 12 4 21 10 21 5 0 12 11 16 25 3 14 12 25 20 25 8 0
14 9 14 20 0 11 6 23 14 26 8 3 17 16 20 30 4 13 11 24 16 24 6 0 10 9 10 19
0 11 9 22 19 26 11 3 22 19 26 35 4 17 11 30 15 30 5 0 12 16 16 35 4 20 12
35 20 35 8 0 18 8 21 18 4 9 13 23 20 30 7 7 13 22 13 32 0 10 9 22 20 25 11
3 20 13 20 21 0 8 5 14 10 14 6 0 10 9 10 19 0 11 6 26 14 33 7 8 16 24 20 35
5 15 12 20 23 16 12 -5 15 -2 10 9 -3 9 3 25 13 35 10 11 21 34 25 52 4 18 9
30 12 27 8 -8 33 21 33 38 0 9 4 16 9 16 5 0 13 10 17 22 3 12 13 28 20 36 8
7 11 18 8 23 -3 6 3 13 14 16 11 3 23 16 26 29 4 13 11 24 16 24 6 0 10 9 10
21 0 12 8 23 20 26 11 3 20 10 20 16 0 14 42 99 57 115 7 7 13 20 13 28 0 8 7
14 15 14 9 0 18 12 22 30 3 17 9 30 14 30 4 0 11 9 14 20 3 11 13 20 21 20 8
0 14 9 14 19 0 11 7 26 15 35 8 8 15 20 15 26 0 6 7 13 15 16 8 4 15 15 15 25
0 11 9 27 20 36 11 10 20 23 20 29 0 6 9 23 20 37 11 14 20 32 20 41 0 9 6 16
14 16 8 0 18 10 22 23 4 12 11 25 17 29 6 3 12 15 13 25 2 9 8 19 13 21 6 2
11 9 11 16 0 6 9 18 20 26 11 8 20 23 20 33 0 9 7 20 15 23 8 3 17 21 21 39 4
23 10 32 20 28 8 -3 14 1 14 11 0 9 6 19 14 22 8 3 17 21 20 40 4 19 10 34 15
34 4 0 14 12 22 28 14 27 24 41 45 65 6 7 14 25 18 40 3 15 13 27 21 27 8 0
15 7 15 15 0 9 7 18 15 21 8 4 15 13 15 21 0 17 31 76 43 81 4 2 7 10 7 18 0
9 4 12 10 9 5 -3 13 7 16 22 4 15 13 34 21 41 7 7 13 20 13 28 0 8 7 14 15 14
8 0 16 5 16 10 1 6 2 15 3 20 0 6 6 14 12 18 6 4 14 17 18 30 4 12 13 22 21
22 7 0 16 11 19 25 4 14 10 25 15 25 5 0 12 14 16 30 4 16 10 30 15 30 5 0 11
14 15 30 4 17 13 30 20 30 8 0 17 10 21 22 3 12 13 28 20 36 8 7 14 22 14 32
0 10 9 20 20 23 11 3 20 12 20 21 0 9 5 16 10 16 6 0 10 9 10 19 0 11 7 26 15
35 8 8 15 19 15 25 0 5 9 12 19 16 12 3 21 19 25 40 4 19 11 35 16 35 6 0 10
7 10 15 0 8 9 19 20 25 11 6 23 22 26 35 3 14 10 25 14 25 5 0 11 13 15 30 4
16 15 32 26 35 10 4 19 15 19 26 0 10 4 19 9 19 5 0 12 11 15 25 4 14 11 25
16 25 6 0 10 9 10 21 0 12 8 23 19 26 12 3 23 17 26 34 4 16 10 29 15 29 5 0
12 14 15 31 5 23 9 28 16 18 6 -10 9 -8 9 9 0 12 5 22 10 22 6 0 10 5 10 11 0
6 7 17 15 25 8 9 15 24 15 35 0 10 4 19 9 19 5 0 13 9 16 20 3 11 13 20 21 20
8 0 17 13 21 30 3 17 9 30 14 30 5 0 9 7 9 16 0 9 9 18 19 21 12 3 21 17 26
39 3 19 10 34 15 34 4 0 11 13 15 29 3 16 13 32 21 35 8 3 14 12 14 21 0 8 6
15 14 15 8 0 17 13 21 29 3 16 13 32 21 35 8 3 14 15 14 26 0 11 6 20 14 20 8
0 17 11 20 25 4 14 11 25 16 25 6 0 10 9 10 20 0 12 11 32 25 46 14 14 25 31
25 39 0 8 4 15 10 15 5 0 12 11 16 25 3 14 10 23 14 20 5 -3 11 8 15 25 4 16
13 30 21 30 7 0 17 12 20 27 4 15 11 32 16 38 5 5 29 41 53 79 25 38 45 65 46
60 0 -5 6 7 13 26 6 19 17 34 24 32 7 -1 12 6 12 16 0 11 9 29 20 42 11 13 20
29 20 37 0 7 5 13 10 13 6 0 10 7 10 15 0 8 5 15 10 15 6 0 10 7 10 15 0 8 5
15 10 15 6 0 10 9 10 20 0 11 6 23 14 26 8 3 17 16 20 30 4 13 13 24 21 24 8
0 15 9 15 20 0 11 6 23 14 26 8 3 18 19 21 35 4 16 13 29 21 29 8 0 14 7 14
15 0 9 6 18 14 21 8 3 17 21 21 40 3 19 10 32 15 29 5 -3 12 10 16 30 3 20 12
35 20 35 8 0 14 7 14 15 0 9 6 18 14 21 8 3 17 21 20 39 5 24 11 32 21 28 10
-3 15 1 15 11 0 9 7 19 15 22 8 4 15 14 15 24 0 10 7 25 15 34 8 8 15 17 15
20 0 2 5 17 11 33 7 20 12 24 18 14 6 -10 11 -5 16 18 3 17 10 31 15 31 4 0
10 14 14 30 3 17 12 30 20 30 7 0 16 14 20 31 3 17 10 28 15 25 5 -3 12 5 15
19 4 14 11 25 16 25 6 0 10 9 10 19 0 11 9 22 19 26 11 3 22 19 26 35 4 17 10
30 15 30 5 0 11 14 15 30 4 17 13 30 21 30 8 0 14 9 14 20 0 11 6 23 14 26 8
3 18 19 21 35 4 16 11 29 16 29 5 0 9 6 9 14 0 8 9 18 20 21 11 3 20 15 20 25
0 10 6 25 13 32 7 7 16 21 20 31 3 9 13 17 22 17 8 0 15 9 15 19 0 11 7 26 15
35 8 8 15 23 15 34 0 11 16 36 35 55 19 19 35 42 35 49 0 8 9 25 20 38 11 13
20 29 20 37 0 7 6 13 14 13 8 0 17 11 20 25 4 14 11 25 16 25 6 0 10 9 10 21
0 12 8 23 20 26 14 4 20 14 20 32 0 15 9 34 20 44 11 9 20 24 20 32 0 8 4 15
10 15 5 0 12 11 16 25 3 14 12 25 19 25 8 0 16 13 20 29 3 16 13 32 21 35 8 3
14 12 14 21 0 8 7 15 15 15 9 0 18 12 22 30 3 17 9 30 14 30 4 0 11 16 15 35
3 19 10 35 15 35 5 0 9 8 9 18 0 14 2 15 10 2 8 -13 10 -13 10 2 0 9 5 18 10
20 6 2 12 14 15 28 3 13 11 28 20 32 8 5 15 16 15 23 0 8 6 15 14 15 8 0 17
14 21 30 4 17 10 30 15 30 5 0 12 10 16 23 4 12 15 29 25 38 11 9 19 24 19 33
0 9 4 16 9 16 5 0 12 13 16 29 3 16 13 32 21 35 8 3 14 15 14 26 0 11 7 20 15
20 8 0 15 6 15 13 0 8 9 24 20 37 11 13 20 28 20 34 0 7 9 18 20 26 11 8 20
22 20 31 0 9 7 19 15 23 8 3 15 12 15 21 0 8 4 15 9 15 5 0 12 16 15 35 4 21
13 35 22 35 8 0 17 13 21 31 3 17 12 33 19 36 8 3 14 11 14 19 0 8 7 14 15 14
9 0 18 12 21 29 4 17 12 32 20 35 8 3 14 12 14 21 0 8 4 15 9 15 5 0 12 13 16
29 3 17 14 31 26 34 13 4 19 14 19 35 0 17 6 32 15 36 8 3 15 12 15 21 0 8 6
15 14 15 8 0 18 14 21 31 5 23 9 28 16 18 7 -12 9 -12 9 -1 0 27 32 81 51 87
11 4 21 19 25 40 3 19 10 32 15 29 5 -3 12 13 15 36 4 24 12 40 20 40 8 0 16
11 20 25 3 14 10 25 14 25 5 0 12 10 16 23 4 12 15 29 25 38 11 9 19 23 19 30
0 11 2 11 10 -1 8 -12 10 -11 10 7 0 12 7 28 15 37 8 8 15 20 15 27 0 6 11 22
25 35 16 14 25 34 25 52 0 17 6 32 15 36 8 3 15 11 15 18 0 8 9 20 20 28 11 8
20 20 20 28 0 7 4 11 9 8 5 -3 12 5 15 19 4 14 11 25 16 25 6 0 10 9 10 21 0
12 8 23 19 26 12 3 23 17 26 34 4 16 11 29 16 29 5 0 9 7 9 15 0 9 7 18 15 21
9 4 15 19 15 35 0 16 5 29 10 29 6 0 10 6 10 14 0 8 7 16 15 20 8 3 15 12 15
21 0 8 4 15 9 15 5 0 11 9 14 20 3 11 12 20 21 20 9 0 16 8 16 19 0 11 6 26
13 33 7 7 16 21 20 31 3 9 13 17 22 17 8 0 15 9 15 19 0 11 7 26 15 35 8 8 18
29 21 45 4 17 10 31 15 31 5 0 9 7 9 16 0 9 9 18 20 21 11 3 21 14 21 24 2 32
3 35 22 53 9 10 17 22 17 27 0 5 6 9 14 9 8 0 17 11 20 25 4 14 11 25 16 25 6
0 10 9 10 20 0 11 7 23 15 26 8 4 15 12 15 20 0 8 5 14 10 14 6 0 10 12 10 26
0 14 4 23 9 20 5 -3 12 5 15 19 4 14 11 25 16 25 6 0 10 9 10 21 0 12 8 23 19
26 12 3 23 17 26 34 4 16 11 29 16 29 5 0 9 6 9 14 0 7 11 22 25 32 14 10 25
26 25 35 0 9 7 19 15 23 8 3 15 12 15 21 0 8 5 15 10 15 6 0 10 7 10 15 0 9 7
18 16 22 13 5 13 7 2 14 -10 7 -10 9 2 9 19 0 50 35 50 55 0 9 7 18 15 21 8 4
15 12 15 20 0 8 5 14 10 14 6 0 10 6 10 14 0 14 36 32 53 28 4 -1 7 2 7 7 0 4
35 11 77 14 43 3 79 11 81 16 2 6 15 11 28 11 13 0 24 5 24 10 0 6 20 10 45
10 25 0 45 4 45 9 0 4 53 11 117 15 65 4 120 11 123 16 4 7 193 27 228 23 6 0
12 5 12 12 0 9 48 14 188 19 103 4 189 12 190 17 2 5 39 9 83 9 l79 0 0 -276z
m910 266 c0 -13 245 -13 271 0 10 6 19 7 19 2 0 -5 100 -12 223 -16 122 -5
227 -8 234 -9 6 0 9 -6 7 -12 -5 -12 121 -25 238 -25 25 0 48 -4 50 -10 2 -5
67 -13 146 -16 78 -4 142 -11 142 -16 0 -4 25 -8 55 -8 30 0 55 -4 55 -10 0
-6 27 -10 60 -10 33 0 60 -4 60 -9 0 -5 52 -12 115 -16 63 -4 115 -11 115 -15
0 -4 30 -11 66 -15 39 -4 67 -12 70 -20 3 -8 32 -16 75 -20 38 -4 71 -11 74
-15 3 -4 41 -11 85 -15 44 -4 80 -11 80 -16 0 -5 15 -9 33 -9 18 0 37 -4 43
-9 5 -5 25 -11 44 -12 19 -2 38 -7 41 -12 3 -4 29 -10 57 -14 29 -3 52 -9 52
-13 0 -4 22 -10 49 -14 27 -4 51 -13 54 -20 3 -7 27 -17 54 -21 26 -4 51 -11
54 -17 3 -5 25 -12 48 -15 22 -3 41 -10 41 -14 0 -5 7 -9 15 -9 8 0 15 -4 15
-10 0 -5 12 -10 26 -10 14 0 23 -4 20 -9 -4 -5 12 -12 34 -16 22 -4 40 -11 40
-15 0 -5 14 -11 30 -15 17 -4 30 -13 30 -21 0 -8 9 -15 20 -15 36 -3 41 -4 48
-16 4 -6 24 -14 44 -18 28 -5 35 -11 31 -23 -4 -10 -2 -13 5 -8 6 3 13 2 17
-4 3 -5 15 -10 26 -10 10 0 19 -4 19 -10 0 -5 16 -12 35 -16 19 -3 35 -10 35
-14 0 -5 14 -11 30 -15 17 -4 30 -13 30 -20 0 -7 14 -16 30 -20 17 -4 30 -11
30 -16 0 -5 9 -9 21 -9 13 0 23 -8 26 -20 3 -11 16 -23 29 -26 13 -3 24 -10
24 -15 0 -5 8 -9 18 -9 9 0 28 -12 41 -25 13 -14 29 -25 36 -25 7 0 15 -7 19
-15 3 -8 12 -15 21 -15 8 0 15 -4 15 -9 0 -5 13 -11 29 -14 18 -4 30 -14 34
-27 3 -12 10 -19 16 -15 6 3 14 -1 17 -9 3 -9 12 -16 19 -16 7 0 21 -11 31
-25 10 -14 22 -25 27 -25 7 0 17 -7 50 -36 7 -5 20 -13 30 -17 9 -3 17 -13 17
-22 0 -8 7 -15 15 -15 9 0 18 -7 21 -15 4 -8 12 -15 20 -15 7 0 24 -11 38 -25
14 -14 28 -25 32 -25 4 0 16 -10 28 -23 12 -13 29 -26 39 -30 9 -3 17 -11 17
-17 0 -17 35 -47 64 -54 14 -3 26 -12 26 -19 0 -12 42 -57 54 -57 10 0 42 -35
49 -53 3 -9 13 -17 22 -17 8 0 15 -4 15 -9 0 -5 7 -17 16 -25 12 -12 12 -16 2
-16 -7 -1 -2 -7 12 -15 14 -8 22 -14 18 -15 -12 0 30 -40 42 -40 6 0 10 -4 10
-10 0 -5 17 -25 38 -45 20 -20 37 -40 37 -45 0 -4 17 -24 38 -43 20 -20 37
-41 37 -47 0 -6 11 -21 24 -33 13 -12 27 -37 30 -54 4 -18 13 -33 21 -33 7 0
16 -11 19 -25 4 -14 10 -25 15 -25 5 0 12 -13 16 -30 4 -16 11 -30 16 -30 5 0
9 -7 9 -16 0 -9 8 -24 19 -33 10 -9 22 -31 25 -49 4 -17 12 -32 16 -32 5 0 12
-16 16 -35 3 -19 12 -35 20 -35 7 0 16 -16 20 -35 3 -19 10 -35 15 -35 5 0 12
-18 15 -41 5 -27 10 -36 15 -27 6 9 9 4 9 -14 0 -16 5 -28 10 -28 6 0 10 -7
10 -15 0 -8 4 -15 9 -15 4 0 11 -19 14 -41 3 -23 10 -45 15 -48 6 -3 13 -28
17 -54 4 -27 14 -51 21 -54 7 -3 16 -21 20 -41 4 -21 10 -39 14 -42 4 -3 12
-30 17 -60 6 -34 14 -54 21 -53 7 2 12 -3 13 -10 1 -41 12 -103 19 -107 4 -3
11 -35 15 -72 4 -38 11 -68 15 -68 4 0 11 -38 15 -85 5 -59 11 -85 20 -85 9 0
15 -34 20 -127 4 -71 12 -131 17 -134 14 -9 15 -738 1 -747 -6 -4 -14 -60 -18
-124 -5 -91 -10 -118 -21 -118 -9 0 -14 -11 -14 -27 -1 -52 -13 -138 -20 -143
-4 -3 -10 -34 -14 -70 -4 -35 -11 -69 -14 -75 -4 -5 -12 -32 -17 -60 -6 -27
-15 -49 -22 -48 -6 1 -13 -23 -18 -62 -3 -36 -11 -65 -16 -65 -5 0 -12 -18
-15 -40 -4 -22 -12 -40 -19 -40 -8 0 -16 -20 -20 -50 -4 -27 -11 -50 -15 -50
-5 0 -12 -16 -16 -35 -3 -19 -10 -35 -15 -35 -5 0 -9 -12 -9 -26 0 -14 -4 -23
-10 -19 -6 4 -10 -5 -10 -19 0 -14 -4 -26 -10 -26 -5 0 -12 -16 -16 -35 -3
-19 -10 -35 -14 -35 -4 0 -10 -13 -13 -30 -4 -16 -13 -30 -21 -30 -8 0 -17
-15 -20 -35 -4 -19 -11 -35 -15 -35 -5 0 -11 -14 -15 -31 -6 -32 -29 -62 -40
-52 -3 4 -6 -3 -6 -15 0 -12 -4 -22 -9 -22 -5 0 -12 -13 -16 -30 -4 -16 -10
-30 -15 -30 -5 0 -11 -13 -15 -29 -3 -17 -14 -31 -26 -34 -11 -3 -19 -14 -19
-26 0 -12 -4 -21 -10 -21 -5 0 -10 -7 -10 -15 0 -8 -11 -26 -25 -40 -14 -14
-22 -25 -18 -25 4 0 1 -6 -8 -13 -9 -7 -19 -22 -23 -35 -4 -12 -12 -22 -17
-22 -5 0 -9 -9 -9 -20 0 -11 -8 -24 -17 -27 -18 -7 -53 -39 -53 -49 0 -3 5 -2
12 2 6 4 3 -5 -8 -19 -10 -15 -25 -27 -32 -27 -7 0 -15 -7 -19 -16 -8 -21 -71
-84 -84 -84 -5 0 -13 -8 -16 -17 -8 -21 -35 -48 -56 -56 -9 -3 -17 -12 -17
-19 -1 -7 -12 -22 -26 -33 -30 -23 -60 -53 -90 -89 -12 -14 -33 -28 -48 -32
-14 -3 -26 -12 -26 -19 0 -7 -12 -21 -26 -31 -33 -24 -44 -35 -68 -68 -10 -14
-25 -26 -32 -26 -8 0 -14 -4 -14 -10 0 -5 -7 -10 -16 -10 -9 0 -18 -9 -21 -20
-3 -11 -9 -20 -14 -20 -4 0 -22 -13 -39 -30 -17 -16 -35 -30 -40 -30 -6 0 -10
-4 -10 -10 0 -5 -5 -10 -10 -10 -6 0 -21 -11 -33 -24 -12 -13 -32 -26 -44 -30
-13 -4 -23 -13 -23 -21 0 -7 -7 -15 -15 -19 -33 -12 -11 -24 63 -32 46 -6 76
-14 75 -20 -1 -7 29 -14 80 -18 45 -4 84 -11 87 -15 3 -5 33 -12 68 -16 34 -4
62 -10 62 -15 0 -4 29 -11 65 -15 43 -4 65 -11 65 -19 0 -8 20 -16 52 -19 28
-4 54 -11 57 -16 4 -5 34 -13 69 -17 39 -4 62 -11 62 -19 0 -13 43 -25 86 -25
13 0 24 -4 24 -9 0 -5 25 -12 55 -16 30 -3 53 -10 50 -14 -4 -7 57 -19 113
-23 6 -1 12 -7 12 -14 0 -7 19 -16 45 -20 25 -3 42 -10 39 -15 -3 -5 2 -10 10
-10 9 -1 21 -3 26 -4 6 -1 19 -3 30 -4 11 0 20 -8 20 -16 0 -10 14 -17 40 -21
22 -4 40 -10 40 -14 0 -4 25 -11 55 -15 30 -3 55 -11 55 -16 0 -5 11 -9 25 -9
14 0 25 -4 25 -10 0 -5 16 -10 35 -10 19 0 35 -4 35 -10 0 -5 18 -13 40 -16
22 -4 40 -10 40 -15 0 -5 3 -8 8 -8 21 5 91 -15 89 -24 -1 -6 15 -16 36 -21
20 -5 37 -13 37 -17 0 -4 14 -10 30 -14 17 -4 30 -11 30 -16 0 -5 7 -9 15 -9
22 0 65 -22 60 -30 -3 -4 11 -11 30 -14 19 -4 35 -11 35 -15 0 -5 11 -12 25
-15 14 -4 34 -15 45 -26 11 -11 29 -20 39 -20 10 0 21 -7 25 -15 3 -8 11 -15
18 -15 8 0 20 -9 28 -20 8 -11 19 -20 25 -20 6 0 22 -11 37 -25 15 -14 34 -25
43 -25 10 0 19 -8 22 -18 5 -17 65 -62 84 -62 5 0 9 -5 9 -11 0 -15 42 -59 57
-59 17 0 53 -32 53 -47 0 -6 9 -15 20 -18 11 -3 20 -10 20 -15 0 -4 11 -11 25
-14 14 -4 25 -13 25 -22 0 -8 8 -18 18 -21 9 -4 26 -18 37 -31 25 -30 57 -62
87 -87 13 -11 27 -28 31 -37 3 -10 12 -18 19 -18 7 -1 22 -12 33 -26 33 -42
65 -74 75 -74 5 0 13 -12 16 -26 7 -27 37 -64 52 -64 11 0 39 -35 47 -59 3
-12 13 -21 20 -21 8 0 18 -12 21 -27 4 -15 17 -36 29 -47 12 -12 25 -31 29
-43 4 -13 14 -23 21 -23 8 0 17 -11 21 -24 3 -14 12 -27 20 -30 8 -3 14 -15
14 -26 0 -11 7 -20 15 -20 9 0 18 -12 21 -29 4 -17 12 -32 20 -35 8 -3 14 -12
14 -21 0 -8 5 -15 10 -15 6 0 10 -6 10 -13 0 -7 9 -23 20 -35 11 -12 23 -35
26 -52 4 -16 10 -30 15 -30 4 0 11 -9 14 -20 3 -11 12 -20 20 -20 7 0 16 -16
19 -35 4 -19 11 -35 16 -35 5 0 12 -16 16 -35 3 -19 10 -35 15 -35 5 0 9 -7 9
-15 0 -8 5 -15 10 -15 6 0 10 -9 10 -20 0 -11 4 -20 9 -20 5 0 12 -14 16 -30
4 -16 10 -30 15 -30 4 0 11 -22 15 -50 4 -31 12 -50 20 -50 7 0 16 -14 20 -30
4 -16 10 -30 15 -30 8 0 24 -75 21 -97 -1 -7 3 -13 9 -13 5 0 10 -7 10 -15 0
-8 5 -15 10 -15 6 0 10 -9 10 -20 0 -11 4 -20 9 -20 5 0 12 -23 15 -52 4 -28
11 -59 16 -68 5 -9 12 -46 16 -81 3 -35 12 -67 19 -71 8 -5 15 -44 20 -108 4
-55 11 -98 15 -95 9 5 25 -319 17 -333 -4 -4 -7 -61 -8 -125 -1 -64 -5 -117
-10 -117 -5 0 -9 -19 -9 -42 0 -103 -13 -208 -26 -208 -9 0 -14 -29 -19 -100
-4 -55 -11 -100 -15 -100 -4 0 -10 -37 -14 -82 -4 -45 -11 -85 -16 -88 -5 -3
-10 -27 -11 -53 -2 -26 -6 -47 -11 -47 -4 0 -8 -9 -8 -20 0 -11 -4 -20 -9 -20
-5 0 -12 -29 -16 -65 -3 -36 -11 -65 -15 -65 -5 0 -12 -23 -16 -51 -4 -28 -13
-53 -20 -56 -7 -3 -17 -21 -21 -41 -9 -47 -8 -42 -21 -75 -7 -16 -12 -35 -12
-43 0 -8 -4 -14 -8 -14 -4 0 -9 -12 -10 -27 -1 -16 -7 -29 -12 -31 -6 -2 -10
-10 -10 -18 0 -8 -4 -14 -9 -14 -5 0 -11 -18 -15 -40 -3 -22 -10 -40 -15 -40
-5 0 -12 -13 -16 -30 -4 -16 -12 -30 -20 -30 -7 0 -16 -11 -19 -25 -4 -14 -10
-23 -15 -20 -5 2 -12 -10 -15 -28 -3 -18 -15 -39 -26 -47 -11 -8 -20 -22 -20
-31 0 -9 -7 -19 -15 -23 -8 -3 -15 -12 -15 -21 0 -8 -4 -15 -9 -15 -5 0 -12
-14 -16 -30 -4 -17 -12 -30 -19 -30 -16 0 -46 -36 -46 -56 0 -9 -9 -18 -20
-21 -11 -3 -23 -17 -27 -31 -3 -14 -16 -35 -28 -46 -12 -12 -25 -31 -29 -43
-4 -13 -12 -23 -17 -23 -16 0 -48 -38 -55 -65 -3 -14 -11 -25 -18 -25 -15 0
-56 -45 -56 -62 0 -7 -9 -20 -21 -28 -36 -26 -69 -59 -69 -69 0 -6 -9 -15 -19
-21 -11 -5 -23 -20 -27 -32 -3 -12 -18 -31 -31 -42 -35 -29 -65 -60 -88 -90
-11 -14 -26 -25 -33 -26 -7 0 -16 -8 -19 -17 -7 -18 -31 -42 -82 -82 -17 -13
-28 -27 -25 -32 3 -5 2 -9 -3 -8 -23 6 -74 -33 -86 -64 -3 -9 -13 -17 -22 -17
-8 0 -15 -3 -15 -7 0 -5 -14 -17 -30 -28 -17 -11 -33 -28 -36 -37 -3 -10 -12
-18 -19 -18 -8 0 -19 -8 -24 -17 -8 -14 -11 -15 -11 -3 0 12 -3 11 -11 -2 -5
-10 -17 -18 -24 -18 -8 0 -15 -5 -15 -12 0 -13 -48 -58 -62 -58 -4 0 -8 -6 -8
-14 0 -8 -13 -17 -29 -21 -16 -3 -32 -13 -35 -21 -3 -8 -12 -14 -21 -14 -19 0
-55 -31 -55 -47 0 -7 -8 -13 -18 -13 -11 0 -29 -9 -42 -20 -13 -11 -27 -20
-32 -20 -4 0 -8 -6 -8 -14 0 -8 -15 -17 -35 -20 -20 -4 -33 -11 -30 -16 3 -4
-9 -11 -25 -15 -17 -4 -36 -15 -43 -26 -6 -10 -17 -19 -24 -19 -7 0 -13 -4
-13 -9 0 -7 -33 -21 -48 -20 -1 0 -10 -7 -18 -16 -9 -8 -22 -15 -30 -15 -8 0
-14 -7 -14 -15 0 -8 -11 -17 -25 -21 -14 -3 -25 -10 -25 -15 0 -5 -9 -9 -20
-9 -11 0 -23 -7 -26 -15 -4 -8 -15 -15 -25 -15 -10 0 -19 -5 -19 -11 0 -5 -5
-7 -10 -4 -6 3 -13 0 -16 -8 -3 -9 -17 -18 -32 -22 -15 -4 -29 -10 -32 -15 -5
-8 -45 -17 -82 -19 -10 -1 -18 -7 -18 -15 0 -9 -15 -17 -40 -21 -22 -4 -40
-10 -40 -15 0 -4 -20 -11 -45 -14 -25 -4 -45 -11 -45 -17 0 -5 -9 -9 -20 -9
-11 0 -20 -4 -20 -10 0 -5 -13 -10 -30 -10 -16 0 -30 -4 -30 -10 0 -5 -17 -12
-37 -16 -21 -4 -41 -11 -44 -16 -3 -5 -25 -12 -48 -15 -25 -3 -41 -11 -41 -19
0 -8 -16 -16 -40 -20 -22 -4 -40 -10 -40 -14 0 -4 -22 -10 -50 -14 -27 -4 -50
-11 -50 -16 0 -6 -16 -10 -35 -10 -19 0 -35 -4 -35 -10 0 -5 -16 -10 -35 -10
-19 0 -35 -4 -35 -9 0 -4 -36 -12 -80 -15 -44 -4 -80 -11 -80 -15 0 -3 -8 -7
-17 -8 -89 -4 -202 -17 -193 -23 8 -5 6 -9 -6 -14 -9 -3 -1018 -9 -2241 -13
l-2225 -6 6 1419 c4 780 9 1443 12 1472 3 29 9 50 13 47 5 -2 12 738 16 1646
4 908 11 1646 15 1640 6 -10 17 1492 21 2929 1 239 4 424 6 410 3 -14 8 -29
12 -33 8 -8 21 2004 21 3172 0 398 4 591 10 581 7 -10 9 165 8 528 l-3 542
218 0 c138 0 217 -4 217 -10z"/>
<path d="M10040 13507 c0 -9 -4 -17 -10 -17 -5 0 -12 -11 -16 -25 -3 -14 -12
-25 -20 -25 -8 0 -14 -6 -14 -14 0 -8 -6 -21 -14 -28 -7 -8 -17 -28 -20 -45
-4 -17 -14 -34 -22 -37 -8 -3 -14 -15 -14 -26 0 -11 -7 -20 -15 -20 -8 0 -17
-11 -21 -25 -3 -14 -10 -25 -15 -25 -5 0 -9 -9 -9 -21 0 -12 -8 -23 -19 -26
-12 -3 -23 -17 -27 -36 -3 -17 -13 -37 -20 -45 -8 -7 -14 -20 -14 -27 0 -8 -9
-17 -20 -20 -11 -3 -20 -11 -20 -16 0 -6 6 -7 13 -4 6 4 2 -2 -10 -13 -12 -11
-25 -31 -29 -46 -3 -14 -10 -26 -14 -26 -5 0 -11 -13 -15 -30 -4 -16 -13 -30
-20 -30 -8 0 -17 -10 -21 -22 -3 -12 -13 -28 -20 -36 -8 -7 -14 -20 -14 -29 0
-9 -13 -29 -30 -45 -16 -15 -30 -34 -30 -41 0 -6 -9 -25 -20 -42 -11 -16 -20
-38 -20 -47 0 -10 -7 -18 -15 -18 -9 0 -19 -8 -22 -17 -4 -10 -13 -24 -20 -31
-7 -7 -13 -22 -13 -33 0 -10 -4 -19 -10 -19 -5 0 -10 -6 -10 -14 0 -8 -9 -18
-20 -21 -11 -3 -20 -14 -20 -23 0 -9 -9 -30 -20 -47 -11 -16 -20 -37 -20 -46
0 -9 -9 -19 -20 -22 -11 -3 -20 -12 -20 -21 0 -9 -4 -16 -9 -16 -5 0 -12 -13
-16 -30 -4 -16 -13 -30 -21 -30 -8 0 -14 -9 -14 -20 0 -11 -6 -23 -14 -26 -8
-3 -18 -19 -21 -35 -4 -16 -10 -29 -15 -29 -5 0 -11 -13 -15 -29 -3 -17 -14
-31 -26 -34 -11 -3 -19 -14 -19 -26 0 -12 -4 -21 -9 -21 -5 0 -12 -11 -15 -25
-4 -14 -13 -25 -21 -25 -8 0 -14 -3 -13 -7 4 -15 -14 -53 -22 -48 -5 3 -11 -9
-15 -26 -4 -17 -14 -40 -24 -51 -9 -11 -24 -29 -33 -40 -10 -11 -15 -25 -12
-29 3 -5 -1 -12 -10 -15 -8 -3 -18 -19 -21 -35 -4 -16 -13 -29 -21 -29 -8 0
-14 -7 -14 -15 0 -9 -6 -18 -14 -21 -8 -3 -16 -17 -19 -32 -3 -15 -15 -37 -26
-49 -12 -12 -21 -27 -21 -33 0 -6 -6 -18 -12 -25 -29 -32 -35 -42 -42 -68 -3
-15 -13 -27 -20 -27 -8 0 -17 -11 -20 -25 -4 -14 -11 -23 -17 -19 -6 3 -10 0
-9 -7 3 -21 -11 -59 -21 -59 -5 0 -9 -9 -9 -21 0 -11 -4 -17 -10 -14 -5 3 -10
-1 -10 -9 0 -9 -4 -16 -10 -16 -5 0 -12 -11 -16 -25 -3 -14 -10 -25 -14 -25
-5 0 -11 -13 -15 -30 -4 -16 -11 -28 -17 -27 -6 1 -15 -11 -21 -28 -5 -16 -16
-34 -23 -38 -8 -4 -14 -16 -14 -25 0 -10 -9 -24 -20 -32 -11 -8 -20 -20 -20
-27 0 -7 -4 -13 -10 -13 -5 0 -10 -9 -10 -20 0 -11 -6 -23 -14 -26 -8 -3 -18
-19 -21 -35 -4 -16 -10 -27 -15 -24 -4 3 -13 -9 -20 -25 -7 -16 -18 -35 -26
-41 -8 -6 -14 -20 -14 -30 0 -11 -6 -19 -14 -19 -8 0 -17 -13 -21 -30 -4 -16
-11 -30 -16 -30 -5 0 -9 -7 -9 -15 0 -7 -6 -18 -14 -22 -7 -4 -18 -21 -23 -38
-6 -16 -15 -29 -21 -28 -6 2 -14 -13 -18 -31 -3 -19 -12 -37 -20 -40 -8 -3
-14 -12 -14 -21 0 -8 -6 -15 -14 -15 -8 0 -17 -13 -21 -30 -4 -16 -11 -30 -16
-30 -5 0 -9 -7 -9 -15 0 -9 -7 -18 -15 -21 -8 -4 -15 -12 -15 -19 0 -10 192
-13 958 -17 526 -3 961 -1 966 3 5 4 11 264 14 581 3 315 8 564 12 553 4 -11
10 440 15 1003 4 563 4 1026 1 1029 -3 4 -6 -1 -6 -10z"/>
</g>
</svg>
